<svg viewBox="0 0 148 148" fill="none" xmlns="http://www.w3.org/2000/svg">
    <rect width="148" height="148" />
    <path d="M20.0859 81.6855C20.543 81.6855 20.9707 81.8027 21.3691 82.0371C21.6035 82.1777 21.7207 82.3594 21.7207 82.582C21.7207 82.6875 21.6943 82.8105 21.6416 82.9512C21.5186 83.2852 21.3486 83.4521 21.1318 83.4521C21.0439 83.4521 20.9619 83.4287 20.8857 83.3818C20.5986 83.2236 20.291 83.1445 19.9629 83.1445C19.4355 83.1445 18.9053 83.3291 18.3721 83.6982C17.8389 84.0615 17.3994 84.5479 17.0537 85.1572C16.7139 85.7666 16.5439 86.4141 16.5439 87.0996V88.8047H19.5059C19.7051 88.8047 19.8457 88.8516 19.9277 88.9453C20.0156 89.0332 20.0596 89.1855 20.0596 89.4023C20.0596 89.6191 20.0156 89.7744 19.9277 89.8682C19.8457 89.9561 19.7051 90 19.5059 90H13.8457C13.6465 90 13.5029 89.9561 13.415 89.8682C13.333 89.7744 13.292 89.6191 13.292 89.4023C13.292 89.1855 13.333 89.0332 13.415 88.9453C13.5029 88.8516 13.6465 88.8047 13.8457 88.8047H15.2256V83.0742H14.1094C13.9102 83.0742 13.7666 83.0303 13.6787 82.9424C13.5967 82.8486 13.5557 82.6934 13.5557 82.4766C13.5557 82.2598 13.5967 82.1074 13.6787 82.0195C13.7666 81.9258 13.9102 81.8789 14.1094 81.8789H15.9023C16.1016 81.8789 16.2422 81.9258 16.3242 82.0195C16.4121 82.1074 16.4561 82.2598 16.4561 82.4766V84.252C16.7373 83.7363 17.0771 83.2852 17.4756 82.8984C17.874 82.5117 18.2988 82.2129 18.75 82.002C19.2012 81.791 19.6465 81.6855 20.0859 81.6855ZM28.2686 81.6855C29.1182 81.6855 29.8418 81.8584 30.4395 82.2041C31.043 82.5439 31.5059 83.0186 31.8281 83.6279C32.1504 84.2314 32.335 84.9287 32.3818 85.7197C32.3818 85.9189 32.3379 86.0596 32.25 86.1416C32.168 86.2236 32.0273 86.2646 31.8281 86.2646H25.4648C25.5059 87.1377 25.7637 87.7998 26.2383 88.251C26.7188 88.6963 27.3955 88.9189 28.2686 88.9189C28.8076 88.9189 29.3408 88.8516 29.8682 88.7168C30.3955 88.5762 30.8584 88.3916 31.2568 88.1631C31.3564 88.1104 31.4473 88.084 31.5293 88.084C31.7344 88.084 31.9014 88.2393 32.0303 88.5498C32.083 88.6729 32.1094 88.7842 32.1094 88.8838C32.1094 89.1182 31.9805 89.2998 31.7227 89.4287C31.2715 89.6572 30.7383 89.8418 30.123 89.9824C29.5078 90.123 28.8896 90.1934 28.2686 90.1934C27.3838 90.1934 26.6279 90.0234 26.001 89.6836C25.374 89.3438 24.8965 88.8545 24.5684 88.2158C24.2402 87.5771 24.0762 86.8184 24.0762 85.9395C24.0762 85.1016 24.2549 84.3604 24.6123 83.7158C24.9697 83.0713 25.4648 82.5732 26.0977 82.2217C26.7305 81.8643 27.4541 81.6855 28.2686 81.6855ZM28.2686 82.96C27.5479 82.96 26.9502 83.1445 26.4756 83.5137C26.0068 83.877 25.6992 84.3838 25.5527 85.0342H30.9229C30.7998 84.3604 30.5156 83.8477 30.0703 83.4961C29.6309 83.1387 29.0303 82.96 28.2686 82.96ZM39.2988 81.8789C39.498 81.8789 39.6387 81.9258 39.7207 82.0195C39.8086 82.1074 39.8525 82.2598 39.8525 82.4766V88.8047H42.6738C42.873 88.8047 43.0137 88.8516 43.0957 88.9453C43.1836 89.0332 43.2275 89.1855 43.2275 89.4023C43.2275 89.6191 43.1836 89.7744 43.0957 89.8682C43.0137 89.9561 42.873 90 42.6738 90H35.7832C35.584 90 35.4404 89.9561 35.3525 89.8682C35.2705 89.7744 35.2295 89.6191 35.2295 89.4023C35.2295 89.1855 35.2705 89.0332 35.3525 88.9453C35.4404 88.8516 35.584 88.8047 35.7832 88.8047H38.5342V83.0742H36.3105C36.1113 83.0742 35.9678 83.0303 35.8799 82.9424C35.7979 82.8486 35.7568 82.6934 35.7568 82.4766C35.7568 82.2598 35.7979 82.1074 35.8799 82.0195C35.9678 81.9258 36.1113 81.8789 36.3105 81.8789H39.2988ZM39.0176 78.0205C39.3398 78.0205 39.5596 78.0645 39.6768 78.1523C39.7939 78.2344 39.8525 78.3809 39.8525 78.5918V79.7344C39.8525 79.9453 39.7939 80.0947 39.6768 80.1826C39.5596 80.2646 39.3398 80.3057 39.0176 80.3057C38.6953 80.3057 38.4756 80.2646 38.3584 80.1826C38.2412 80.0947 38.1826 79.9453 38.1826 79.7344V78.5918C38.1826 78.3809 38.2412 78.2344 38.3584 78.1523C38.4756 78.0645 38.6953 78.0205 39.0176 78.0205ZM50.7686 81.6855C51.3018 81.6855 51.7646 81.8027 52.1572 82.0371C52.5498 82.2656 52.8516 82.5967 53.0625 83.0303C53.2734 83.4639 53.3789 83.9707 53.3789 84.5508V88.8047H54.0996C54.2988 88.8047 54.4395 88.8516 54.5215 88.9453C54.6094 89.0332 54.6533 89.1855 54.6533 89.4023C54.6533 89.6191 54.6094 89.7744 54.5215 89.8682C54.4395 89.9561 54.2988 90 54.0996 90H51.252C51.0527 90 50.9092 89.9561 50.8213 89.8682C50.7393 89.7744 50.6982 89.6191 50.6982 89.4023C50.6982 89.1855 50.7393 89.0332 50.8213 88.9453C50.9092 88.8516 51.0527 88.8047 51.252 88.8047H52.0605V84.6826C52.0605 84.1611 51.9404 83.748 51.7002 83.4434C51.46 83.1387 51.1055 82.9863 50.6367 82.9863C50.1387 82.9863 49.6729 83.1299 49.2393 83.417C48.8115 83.7041 48.4688 84.0996 48.2109 84.6035C47.9531 85.1074 47.8242 85.6699 47.8242 86.291V88.8047H48.6328C48.832 88.8047 48.9727 88.8516 49.0547 88.9453C49.1426 89.0332 49.1865 89.1855 49.1865 89.4023C49.1865 89.6191 49.1426 89.7744 49.0547 89.8682C48.9727 89.9561 48.832 90 48.6328 90H45.7852C45.5859 90 45.4424 89.9561 45.3545 89.8682C45.2725 89.7744 45.2314 89.6191 45.2314 89.4023C45.2314 89.1855 45.2725 89.0332 45.3545 88.9453C45.4424 88.8516 45.5859 88.8047 45.7852 88.8047H46.5059V83.0742H45.6094C45.4102 83.0742 45.2666 83.0303 45.1787 82.9424C45.0967 82.8486 45.0557 82.6934 45.0557 82.4766C45.0557 82.2598 45.0967 82.1074 45.1787 82.0195C45.2666 81.9258 45.4102 81.8789 45.6094 81.8789H47.1826C47.3818 81.8789 47.5225 81.9258 47.6045 82.0195C47.6924 82.1074 47.7363 82.2598 47.7363 82.4766V83.5312C48.123 82.9336 48.5742 82.4766 49.0898 82.1602C49.6113 81.8438 50.1709 81.6855 50.7686 81.6855ZM61.5615 81.6855C62.0947 81.6855 62.5576 81.8027 62.9502 82.0371C63.3428 82.2656 63.6445 82.5967 63.8555 83.0303C64.0664 83.4639 64.1719 83.9707 64.1719 84.5508V88.8047H64.8926C65.0918 88.8047 65.2324 88.8516 65.3145 88.9453C65.4023 89.0332 65.4463 89.1855 65.4463 89.4023C65.4463 89.6191 65.4023 89.7744 65.3145 89.8682C65.2324 89.9561 65.0918 90 64.8926 90H62.0449C61.8457 90 61.7021 89.9561 61.6143 89.8682C61.5322 89.7744 61.4912 89.6191 61.4912 89.4023C61.4912 89.1855 61.5322 89.0332 61.6143 88.9453C61.7021 88.8516 61.8457 88.8047 62.0449 88.8047H62.8535V84.6826C62.8535 84.1611 62.7334 83.748 62.4932 83.4434C62.2529 83.1387 61.8984 82.9863 61.4297 82.9863C60.9316 82.9863 60.4658 83.1299 60.0322 83.417C59.6045 83.7041 59.2617 84.0996 59.0039 84.6035C58.7461 85.1074 58.6172 85.6699 58.6172 86.291V88.8047H59.4258C59.625 88.8047 59.7656 88.8516 59.8477 88.9453C59.9355 89.0332 59.9795 89.1855 59.9795 89.4023C59.9795 89.6191 59.9355 89.7744 59.8477 89.8682C59.7656 89.9561 59.625 90 59.4258 90H56.5781C56.3789 90 56.2354 89.9561 56.1475 89.8682C56.0654 89.7744 56.0244 89.6191 56.0244 89.4023C56.0244 89.1855 56.0654 89.0332 56.1475 88.9453C56.2354 88.8516 56.3789 88.8047 56.5781 88.8047H57.2988V83.0742H56.4023C56.2031 83.0742 56.0596 83.0303 55.9717 82.9424C55.8896 82.8486 55.8486 82.6934 55.8486 82.4766C55.8486 82.2598 55.8896 82.1074 55.9717 82.0195C56.0596 81.9258 56.2031 81.8789 56.4023 81.8789H57.9756C58.1748 81.8789 58.3154 81.9258 58.3975 82.0195C58.4854 82.1074 58.5293 82.2598 58.5293 82.4766V83.5312C58.916 82.9336 59.3672 82.4766 59.8828 82.1602C60.4043 81.8438 60.9639 81.6855 61.5615 81.6855ZM75.7646 81.8789C75.9639 81.8789 76.1045 81.9258 76.1865 82.0195C76.2744 82.1074 76.3184 82.2598 76.3184 82.4766C76.3184 82.6934 76.2744 82.8486 76.1865 82.9424C76.1045 83.0303 75.9639 83.0742 75.7646 83.0742H75.2197L71.625 90.4395C71.2441 91.2188 70.8721 91.8311 70.5088 92.2764C70.1455 92.7217 69.7354 93.0469 69.2783 93.252C68.8271 93.4629 68.2764 93.5801 67.626 93.6035C67.4209 93.6094 67.2627 93.5566 67.1514 93.4453C67.04 93.3398 66.9844 93.1494 66.9844 92.874C66.9844 92.4932 67.1396 92.2939 67.4502 92.2764C68.0127 92.2471 68.458 92.1533 68.7861 91.9951C69.1201 91.8369 69.4248 91.5645 69.7002 91.1777C69.9814 90.7969 70.3242 90.1992 70.7285 89.3848L67.5117 83.0742H66.958C66.7588 83.0742 66.6152 83.0303 66.5273 82.9424C66.4453 82.8486 66.4043 82.6934 66.4043 82.4766C66.4043 82.2598 66.4453 82.1074 66.5273 82.0195C66.6152 81.9258 66.7588 81.8789 66.958 81.8789H70.0693C70.2686 81.8789 70.4092 81.9258 70.4912 82.0195C70.5791 82.1074 70.623 82.2598 70.623 82.4766C70.623 82.6934 70.5791 82.8486 70.4912 82.9424C70.4092 83.0303 70.2686 83.0742 70.0693 83.0742H68.9443L71.4229 88.0137L73.7871 83.0742H73.0049C72.8057 83.0742 72.6621 83.0303 72.5742 82.9424C72.4922 82.8486 72.4512 82.6934 72.4512 82.4766C72.4512 82.2598 72.4922 82.1074 72.5742 82.0195C72.6621 81.9258 72.8057 81.8789 73.0049 81.8789H75.7646ZM17.4316 101.686C18.5332 101.686 19.3594 101.932 19.9102 102.424C20.4609 102.916 20.7363 103.646 20.7363 104.612V108.11C20.7363 108.573 20.9297 108.805 21.3164 108.805H21.624C21.8232 108.805 21.9639 108.852 22.0459 108.945C22.1338 109.033 22.1777 109.186 22.1777 109.402C22.1777 109.619 22.1338 109.774 22.0459 109.868C21.9639 109.956 21.8232 110 21.624 110H21.0615C20.6807 110 20.3525 109.906 20.0771 109.719C19.8076 109.525 19.6318 109.244 19.5498 108.875C19.0693 109.297 18.5479 109.622 17.9854 109.851C17.4287 110.079 16.8369 110.193 16.21 110.193C15.6182 110.193 15.0938 110.094 14.6367 109.895C14.1855 109.689 13.8311 109.394 13.5732 109.007C13.3154 108.62 13.1865 108.16 13.1865 107.627C13.1865 106.701 13.5176 106.019 14.1797 105.579C14.8418 105.134 15.6973 104.911 16.7461 104.911C17.6777 104.911 18.5684 105.061 19.418 105.359V104.612C19.418 104.044 19.2568 103.628 18.9346 103.364C18.6182 103.095 18.1055 102.96 17.3965 102.96C16.957 102.96 16.5 103.021 16.0254 103.145C15.5508 103.268 15.0996 103.438 14.6719 103.654C14.5723 103.707 14.4814 103.733 14.3994 103.733C14.2061 103.733 14.0449 103.593 13.916 103.312C13.8516 103.171 13.8193 103.054 13.8193 102.96C13.8193 102.755 13.9277 102.597 14.1445 102.485C14.6367 102.228 15.1641 102.031 15.7266 101.896C16.2949 101.756 16.8633 101.686 17.4316 101.686ZM16.7549 106.15C16.0811 106.15 15.5479 106.268 15.1553 106.502C14.7686 106.73 14.5752 107.097 14.5752 107.601C14.5752 108.028 14.7217 108.362 15.0146 108.603C15.3135 108.837 15.7295 108.954 16.2627 108.954C17.4287 108.954 18.4805 108.471 19.418 107.504V106.546C19.0195 106.417 18.5918 106.32 18.1348 106.256C17.6777 106.186 17.2178 106.15 16.7549 106.15ZM28.418 98.4688C28.6172 98.4688 28.7578 98.5156 28.8398 98.6094C28.9277 98.6973 28.9717 98.8496 28.9717 99.0664V108.805H31.793C31.9922 108.805 32.1328 108.852 32.2148 108.945C32.3027 109.033 32.3467 109.186 32.3467 109.402C32.3467 109.619 32.3027 109.774 32.2148 109.868C32.1328 109.956 31.9922 110 31.793 110H24.9023C24.7031 110 24.5596 109.956 24.4717 109.868C24.3896 109.774 24.3486 109.619 24.3486 109.402C24.3486 109.186 24.3896 109.033 24.4717 108.945C24.5596 108.852 24.7031 108.805 24.9023 108.805H27.6533V99.6641H25.2539C25.0547 99.6641 24.9111 99.6201 24.8232 99.5322C24.7412 99.4385 24.7002 99.2832 24.7002 99.0664C24.7002 98.8496 24.7412 98.6973 24.8232 98.6094C24.9111 98.5156 25.0547 98.4688 25.2539 98.4688H28.418ZM44.0537 108.805C44.2529 108.805 44.3936 108.852 44.4756 108.945C44.5635 109.033 44.6074 109.186 44.6074 109.402C44.6074 109.619 44.5635 109.774 44.4756 109.868C44.3936 109.956 44.2529 110 44.0537 110H42.7441C42.5449 110 42.4014 109.956 42.3135 109.868C42.2314 109.774 42.1904 109.619 42.1904 109.402V104.199C42.1904 103.795 42.123 103.493 41.9883 103.294C41.8594 103.089 41.6484 102.986 41.3555 102.986C41.0801 102.986 40.8252 103.115 40.5908 103.373C40.3564 103.625 40.1689 103.979 40.0283 104.437C39.8936 104.888 39.8262 105.403 39.8262 105.983V108.805H40.3271C40.5264 108.805 40.667 108.852 40.749 108.945C40.8369 109.033 40.8809 109.186 40.8809 109.402C40.8809 109.619 40.8369 109.774 40.749 109.868C40.667 109.956 40.5264 110 40.3271 110H39.0615C38.8623 110 38.7188 109.956 38.6309 109.868C38.5488 109.774 38.5078 109.619 38.5078 109.402V104.199C38.5078 103.795 38.4404 103.493 38.3057 103.294C38.1768 103.089 37.9658 102.986 37.6729 102.986C37.3975 102.986 37.1426 103.115 36.9082 103.373C36.6738 103.625 36.4863 103.979 36.3457 104.437C36.2109 104.888 36.1436 105.403 36.1436 105.983V108.805H36.6006C36.7998 108.805 36.9404 108.852 37.0225 108.945C37.1104 109.033 37.1543 109.186 37.1543 109.402C37.1543 109.619 37.1104 109.774 37.0225 109.868C36.9404 109.956 36.7998 110 36.6006 110H34.1045C33.9053 110 33.7617 109.956 33.6738 109.868C33.5918 109.774 33.5508 109.619 33.5508 109.402C33.5508 109.186 33.5918 109.033 33.6738 108.945C33.7617 108.852 33.9053 108.805 34.1045 108.805H34.8252V103.074H34.1045C33.9053 103.074 33.7617 103.03 33.6738 102.942C33.5918 102.849 33.5508 102.693 33.5508 102.477C33.5508 102.26 33.5918 102.107 33.6738 102.02C33.7617 101.926 33.9053 101.879 34.1045 101.879H35.4141C35.6133 101.879 35.7539 101.926 35.8359 102.02C35.9238 102.107 35.9678 102.26 35.9678 102.477V103.347C36.2197 102.796 36.5215 102.383 36.873 102.107C37.2246 101.826 37.6055 101.686 38.0156 101.686C38.4141 101.686 38.7627 101.82 39.0615 102.09C39.3604 102.359 39.5625 102.755 39.668 103.276C40.1895 102.216 40.8633 101.686 41.6895 101.686C42.0352 101.686 42.3428 101.773 42.6123 101.949C42.8877 102.119 43.1045 102.383 43.2627 102.74C43.4268 103.092 43.5088 103.525 43.5088 104.041V108.805H44.0537ZM49.7754 101.686C50.5781 101.686 51.3018 101.867 51.9463 102.23C52.5908 102.594 53.0947 103.101 53.458 103.751C53.8271 104.396 54.0117 105.125 54.0117 105.939C54.0117 106.754 53.8271 107.486 53.458 108.137C53.0947 108.781 52.5908 109.285 51.9463 109.648C51.3018 110.012 50.5781 110.193 49.7754 110.193C48.9727 110.193 48.249 110.012 47.6045 109.648C46.96 109.285 46.4531 108.781 46.084 108.137C45.7207 107.486 45.5391 106.754 45.5391 105.939C45.5391 105.125 45.7207 104.396 46.084 103.751C46.4531 103.101 46.96 102.594 47.6045 102.23C48.249 101.867 48.9727 101.686 49.7754 101.686ZM49.7754 102.986C49.207 102.986 48.7061 103.112 48.2725 103.364C47.8447 103.61 47.5137 103.959 47.2793 104.41C47.0449 104.855 46.9277 105.365 46.9277 105.939C46.9277 106.514 47.0449 107.026 47.2793 107.478C47.5137 107.923 47.8447 108.271 48.2725 108.523C48.7061 108.77 49.207 108.893 49.7754 108.893C50.3438 108.893 50.8418 108.77 51.2695 108.523C51.7031 108.271 52.0371 107.923 52.2715 107.478C52.5059 107.026 52.623 106.514 52.623 105.939C52.623 105.365 52.5059 104.855 52.2715 104.41C52.0371 103.959 51.7031 103.61 51.2695 103.364C50.8418 103.112 50.3438 102.986 49.7754 102.986ZM61.5615 101.686C62.0947 101.686 62.5576 101.803 62.9502 102.037C63.3428 102.266 63.6445 102.597 63.8555 103.03C64.0664 103.464 64.1719 103.971 64.1719 104.551V108.805H64.8926C65.0918 108.805 65.2324 108.852 65.3145 108.945C65.4023 109.033 65.4463 109.186 65.4463 109.402C65.4463 109.619 65.4023 109.774 65.3145 109.868C65.2324 109.956 65.0918 110 64.8926 110H62.0449C61.8457 110 61.7021 109.956 61.6143 109.868C61.5322 109.774 61.4912 109.619 61.4912 109.402C61.4912 109.186 61.5322 109.033 61.6143 108.945C61.7021 108.852 61.8457 108.805 62.0449 108.805H62.8535V104.683C62.8535 104.161 62.7334 103.748 62.4932 103.443C62.2529 103.139 61.8984 102.986 61.4297 102.986C60.9316 102.986 60.4658 103.13 60.0322 103.417C59.6045 103.704 59.2617 104.1 59.0039 104.604C58.7461 105.107 58.6172 105.67 58.6172 106.291V108.805H59.4258C59.625 108.805 59.7656 108.852 59.8477 108.945C59.9355 109.033 59.9795 109.186 59.9795 109.402C59.9795 109.619 59.9355 109.774 59.8477 109.868C59.7656 109.956 59.625 110 59.4258 110H56.5781C56.3789 110 56.2354 109.956 56.1475 109.868C56.0654 109.774 56.0244 109.619 56.0244 109.402C56.0244 109.186 56.0654 109.033 56.1475 108.945C56.2354 108.852 56.3789 108.805 56.5781 108.805H57.2988V103.074H56.4023C56.2031 103.074 56.0596 103.03 55.9717 102.942C55.8896 102.849 55.8486 102.693 55.8486 102.477C55.8486 102.26 55.8896 102.107 55.9717 102.02C56.0596 101.926 56.2031 101.879 56.4023 101.879H57.9756C58.1748 101.879 58.3154 101.926 58.3975 102.02C58.4854 102.107 58.5293 102.26 58.5293 102.477V103.531C58.916 102.934 59.3672 102.477 59.8828 102.16C60.4043 101.844 60.9639 101.686 61.5615 101.686ZM69.9902 99.374C70.2305 99.374 70.4004 99.418 70.5 99.5059C70.5996 99.5938 70.6494 99.7402 70.6494 99.9453V102.582H74.2617C74.4609 102.582 74.6016 102.629 74.6836 102.723C74.7715 102.811 74.8154 102.963 74.8154 103.18C74.8154 103.396 74.7715 103.552 74.6836 103.646C74.6016 103.733 74.4609 103.777 74.2617 103.777H70.6494V106.977C70.6494 107.645 70.7637 108.134 70.9922 108.444C71.2266 108.755 71.6309 108.91 72.2051 108.91C72.5977 108.91 73.0107 108.831 73.4443 108.673C73.8779 108.515 74.2969 108.304 74.7012 108.04C74.7832 107.981 74.874 107.952 74.9736 107.952C75.1729 107.952 75.3428 108.087 75.4834 108.356C75.5596 108.509 75.5977 108.641 75.5977 108.752C75.5977 108.939 75.501 109.092 75.3076 109.209C74.8506 109.496 74.3408 109.733 73.7783 109.921C73.2158 110.103 72.6914 110.193 72.2051 110.193C71.209 110.193 70.4795 109.936 70.0166 109.42C69.5596 108.898 69.3311 108.122 69.3311 107.091V103.777H67.5469C67.3477 103.777 67.2041 103.733 67.1162 103.646C67.0342 103.552 66.9932 103.396 66.9932 103.18C66.9932 102.963 67.0342 102.811 67.1162 102.723C67.2041 102.629 67.3477 102.582 67.5469 102.582H69.3311V99.9453C69.3311 99.7402 69.3809 99.5938 69.4805 99.5059C69.5801 99.418 69.75 99.374 69.9902 99.374ZM82.2334 101.686C83.083 101.686 83.8066 101.858 84.4043 102.204C85.0078 102.544 85.4707 103.019 85.793 103.628C86.1152 104.231 86.2998 104.929 86.3467 105.72C86.3467 105.919 86.3027 106.06 86.2148 106.142C86.1328 106.224 85.9922 106.265 85.793 106.265H79.4297C79.4707 107.138 79.7285 107.8 80.2031 108.251C80.6836 108.696 81.3604 108.919 82.2334 108.919C82.7725 108.919 83.3057 108.852 83.833 108.717C84.3604 108.576 84.8232 108.392 85.2217 108.163C85.3213 108.11 85.4121 108.084 85.4941 108.084C85.6992 108.084 85.8662 108.239 85.9951 108.55C86.0479 108.673 86.0742 108.784 86.0742 108.884C86.0742 109.118 85.9453 109.3 85.6875 109.429C85.2363 109.657 84.7031 109.842 84.0879 109.982C83.4727 110.123 82.8545 110.193 82.2334 110.193C81.3486 110.193 80.5928 110.023 79.9658 109.684C79.3389 109.344 78.8613 108.854 78.5332 108.216C78.2051 107.577 78.041 106.818 78.041 105.939C78.041 105.102 78.2197 104.36 78.5771 103.716C78.9346 103.071 79.4297 102.573 80.0625 102.222C80.6953 101.864 81.4189 101.686 82.2334 101.686ZM82.2334 102.96C81.5127 102.96 80.915 103.145 80.4404 103.514C79.9717 103.877 79.6641 104.384 79.5176 105.034H84.8877C84.7646 104.36 84.4805 103.848 84.0352 103.496C83.5957 103.139 82.9951 102.96 82.2334 102.96ZM20.0859 121.686C20.543 121.686 20.9707 121.803 21.3691 122.037C21.6035 122.178 21.7207 122.359 21.7207 122.582C21.7207 122.688 21.6943 122.811 21.6416 122.951C21.5186 123.285 21.3486 123.452 21.1318 123.452C21.0439 123.452 20.9619 123.429 20.8857 123.382C20.5986 123.224 20.291 123.145 19.9629 123.145C19.4355 123.145 18.9053 123.329 18.3721 123.698C17.8389 124.062 17.3994 124.548 17.0537 125.157C16.7139 125.767 16.5439 126.414 16.5439 127.1V128.805H19.5059C19.7051 128.805 19.8457 128.852 19.9277 128.945C20.0156 129.033 20.0596 129.186 20.0596 129.402C20.0596 129.619 20.0156 129.774 19.9277 129.868C19.8457 129.956 19.7051 130 19.5059 130H13.8457C13.6465 130 13.5029 129.956 13.415 129.868C13.333 129.774 13.292 129.619 13.292 129.402C13.292 129.186 13.333 129.033 13.415 128.945C13.5029 128.852 13.6465 128.805 13.8457 128.805H15.2256V123.074H14.1094C13.9102 123.074 13.7666 123.03 13.6787 122.942C13.5967 122.849 13.5557 122.693 13.5557 122.477C13.5557 122.26 13.5967 122.107 13.6787 122.02C13.7666 121.926 13.9102 121.879 14.1094 121.879H15.9023C16.1016 121.879 16.2422 121.926 16.3242 122.02C16.4121 122.107 16.4561 122.26 16.4561 122.477V124.252C16.7373 123.736 17.0771 123.285 17.4756 122.898C17.874 122.512 18.2988 122.213 18.75 122.002C19.2012 121.791 19.6465 121.686 20.0859 121.686ZM28.2246 121.686C29.3262 121.686 30.1523 121.932 30.7031 122.424C31.2539 122.916 31.5293 123.646 31.5293 124.612V128.11C31.5293 128.573 31.7227 128.805 32.1094 128.805H32.417C32.6162 128.805 32.7568 128.852 32.8389 128.945C32.9268 129.033 32.9707 129.186 32.9707 129.402C32.9707 129.619 32.9268 129.774 32.8389 129.868C32.7568 129.956 32.6162 130 32.417 130H31.8545C31.4736 130 31.1455 129.906 30.8701 129.719C30.6006 129.525 30.4248 129.244 30.3428 128.875C29.8623 129.297 29.3408 129.622 28.7783 129.851C28.2217 130.079 27.6299 130.193 27.0029 130.193C26.4111 130.193 25.8867 130.094 25.4297 129.895C24.9785 129.689 24.624 129.394 24.3662 129.007C24.1084 128.62 23.9795 128.16 23.9795 127.627C23.9795 126.701 24.3105 126.019 24.9727 125.579C25.6348 125.134 26.4902 124.911 27.5391 124.911C28.4707 124.911 29.3613 125.061 30.2109 125.359V124.612C30.2109 124.044 30.0498 123.628 29.7275 123.364C29.4111 123.095 28.8984 122.96 28.1895 122.96C27.75 122.96 27.293 123.021 26.8184 123.145C26.3438 123.268 25.8926 123.438 25.4648 123.654C25.3652 123.707 25.2744 123.733 25.1924 123.733C24.999 123.733 24.8379 123.593 24.709 123.312C24.6445 123.171 24.6123 123.054 24.6123 122.96C24.6123 122.755 24.7207 122.597 24.9375 122.485C25.4297 122.228 25.957 122.031 26.5195 121.896C27.0879 121.756 27.6562 121.686 28.2246 121.686ZM27.5479 126.15C26.874 126.15 26.3408 126.268 25.9482 126.502C25.5615 126.73 25.3682 127.097 25.3682 127.601C25.3682 128.028 25.5146 128.362 25.8076 128.603C26.1064 128.837 26.5225 128.954 27.0557 128.954C28.2217 128.954 29.2734 128.471 30.2109 127.504V126.546C29.8125 126.417 29.3848 126.32 28.9277 126.256C28.4707 126.186 28.0107 126.15 27.5479 126.15ZM44.0537 128.805C44.2529 128.805 44.3936 128.852 44.4756 128.945C44.5635 129.033 44.6074 129.186 44.6074 129.402C44.6074 129.619 44.5635 129.774 44.4756 129.868C44.3936 129.956 44.2529 130 44.0537 130H42.7441C42.5449 130 42.4014 129.956 42.3135 129.868C42.2314 129.774 42.1904 129.619 42.1904 129.402V124.199C42.1904 123.795 42.123 123.493 41.9883 123.294C41.8594 123.089 41.6484 122.986 41.3555 122.986C41.0801 122.986 40.8252 123.115 40.5908 123.373C40.3564 123.625 40.1689 123.979 40.0283 124.437C39.8936 124.888 39.8262 125.403 39.8262 125.983V128.805H40.3271C40.5264 128.805 40.667 128.852 40.749 128.945C40.8369 129.033 40.8809 129.186 40.8809 129.402C40.8809 129.619 40.8369 129.774 40.749 129.868C40.667 129.956 40.5264 130 40.3271 130H39.0615C38.8623 130 38.7188 129.956 38.6309 129.868C38.5488 129.774 38.5078 129.619 38.5078 129.402V124.199C38.5078 123.795 38.4404 123.493 38.3057 123.294C38.1768 123.089 37.9658 122.986 37.6729 122.986C37.3975 122.986 37.1426 123.115 36.9082 123.373C36.6738 123.625 36.4863 123.979 36.3457 124.437C36.2109 124.888 36.1436 125.403 36.1436 125.983V128.805H36.6006C36.7998 128.805 36.9404 128.852 37.0225 128.945C37.1104 129.033 37.1543 129.186 37.1543 129.402C37.1543 129.619 37.1104 129.774 37.0225 129.868C36.9404 129.956 36.7998 130 36.6006 130H34.1045C33.9053 130 33.7617 129.956 33.6738 129.868C33.5918 129.774 33.5508 129.619 33.5508 129.402C33.5508 129.186 33.5918 129.033 33.6738 128.945C33.7617 128.852 33.9053 128.805 34.1045 128.805H34.8252V123.074H34.1045C33.9053 123.074 33.7617 123.03 33.6738 122.942C33.5918 122.849 33.5508 122.693 33.5508 122.477C33.5508 122.26 33.5918 122.107 33.6738 122.02C33.7617 121.926 33.9053 121.879 34.1045 121.879H35.4141C35.6133 121.879 35.7539 121.926 35.8359 122.02C35.9238 122.107 35.9678 122.26 35.9678 122.477V123.347C36.2197 122.796 36.5215 122.383 36.873 122.107C37.2246 121.826 37.6055 121.686 38.0156 121.686C38.4141 121.686 38.7627 121.82 39.0615 122.09C39.3604 122.359 39.5625 122.755 39.668 123.276C40.1895 122.216 40.8633 121.686 41.6895 121.686C42.0352 121.686 42.3428 121.773 42.6123 121.949C42.8877 122.119 43.1045 122.383 43.2627 122.74C43.4268 123.092 43.5088 123.525 43.5088 124.041V128.805H44.0537ZM49.7754 121.686C50.5781 121.686 51.3018 121.867 51.9463 122.23C52.5908 122.594 53.0947 123.101 53.458 123.751C53.8271 124.396 54.0117 125.125 54.0117 125.939C54.0117 126.754 53.8271 127.486 53.458 128.137C53.0947 128.781 52.5908 129.285 51.9463 129.648C51.3018 130.012 50.5781 130.193 49.7754 130.193C48.9727 130.193 48.249 130.012 47.6045 129.648C46.96 129.285 46.4531 128.781 46.084 128.137C45.7207 127.486 45.5391 126.754 45.5391 125.939C45.5391 125.125 45.7207 124.396 46.084 123.751C46.4531 123.101 46.96 122.594 47.6045 122.23C48.249 121.867 48.9727 121.686 49.7754 121.686ZM49.7754 122.986C49.207 122.986 48.7061 123.112 48.2725 123.364C47.8447 123.61 47.5137 123.959 47.2793 124.41C47.0449 124.855 46.9277 125.365 46.9277 125.939C46.9277 126.514 47.0449 127.026 47.2793 127.478C47.5137 127.923 47.8447 128.271 48.2725 128.523C48.7061 128.77 49.207 128.893 49.7754 128.893C50.3438 128.893 50.8418 128.77 51.2695 128.523C51.7031 128.271 52.0371 127.923 52.2715 127.478C52.5059 127.026 52.623 126.514 52.623 125.939C52.623 125.365 52.5059 124.855 52.2715 124.41C52.0371 123.959 51.7031 123.61 51.2695 123.364C50.8418 123.112 50.3438 122.986 49.7754 122.986ZM63.3369 121.686C63.5771 121.686 63.7471 121.729 63.8467 121.817C63.9463 121.905 63.9961 122.052 63.9961 122.257V123.927C63.9961 124.132 63.9463 124.278 63.8467 124.366C63.7471 124.454 63.5771 124.498 63.3369 124.498C63.1377 124.498 62.9971 124.422 62.915 124.27C62.6631 123.789 62.2969 123.452 61.8164 123.259C61.3359 123.06 60.7266 122.96 59.9883 122.96C59.4199 122.96 58.9746 123.062 58.6523 123.268C58.3359 123.467 58.1777 123.748 58.1777 124.111C58.1777 124.299 58.2363 124.451 58.3535 124.568C58.4766 124.686 58.6553 124.782 58.8896 124.858C59.083 124.923 59.3057 124.973 59.5576 125.008C59.8154 125.043 60.1465 125.081 60.5508 125.122C61.1191 125.187 61.5762 125.248 61.9219 125.307C62.2734 125.359 62.6045 125.441 62.915 125.553C63.3838 125.723 63.7471 125.969 64.0049 126.291C64.2686 126.613 64.4004 127.038 64.4004 127.565C64.4004 128.093 64.2656 128.556 63.9961 128.954C63.7324 129.347 63.3428 129.651 62.8271 129.868C62.3174 130.085 61.7051 130.193 60.9902 130.193C60.3574 130.193 59.8008 130.105 59.3203 129.93C58.8398 129.754 58.4209 129.487 58.0635 129.13V129.622C58.0635 129.827 58.0137 129.974 57.9141 130.062C57.8145 130.149 57.6445 130.193 57.4043 130.193C57.1641 130.193 56.9941 130.149 56.8945 130.062C56.7949 129.974 56.7451 129.827 56.7451 129.622V127.513C56.7451 127.308 56.7949 127.161 56.8945 127.073C56.9941 126.985 57.1641 126.941 57.4043 126.941C57.5273 126.941 57.624 126.971 57.6943 127.029C57.7646 127.082 57.8262 127.173 57.8789 127.302C58.0898 127.864 58.4414 128.274 58.9336 128.532C59.4258 128.79 60.082 128.919 60.9023 128.919C61.582 128.919 62.1035 128.796 62.4668 128.55C62.8301 128.304 63.0117 127.976 63.0117 127.565C63.0117 127.366 62.9473 127.202 62.8184 127.073C62.6895 126.944 62.5049 126.839 62.2646 126.757C62.0596 126.692 61.8223 126.64 61.5527 126.599C61.2891 126.552 60.9521 126.508 60.542 126.467C59.9912 126.408 59.5312 126.347 59.1621 126.282C58.793 126.218 58.4531 126.124 58.1426 126.001C57.7148 125.831 57.3809 125.597 57.1406 125.298C56.9062 124.993 56.7891 124.598 56.7891 124.111C56.7891 123.602 56.9209 123.165 57.1846 122.802C57.4541 122.433 57.8232 122.154 58.292 121.967C58.7666 121.779 59.3027 121.686 59.9004 121.686C60.4688 121.686 60.9873 121.771 61.4561 121.94C61.9307 122.11 62.3379 122.348 62.6777 122.652V122.257C62.6777 122.052 62.7275 121.905 62.8271 121.817C62.9268 121.729 63.0967 121.686 63.3369 121.686Z"/>

    rect { fill: #212529; }
    path { fill: #F8F9FA; }
    
    @media (prefers-color-scheme: dark) {
        rect { fill: #F8F9FA; }
        path { fill: #212529; }
    }
</svg>
    
